<?xml version="1.0" encoding="UTF-8"?><svg id="_レイヤー_1" xmlns="http://www.w3.org/2000/svg" viewBox="0 0 349.67 217.39"><path d="M141.99,209.85h-15.66l-3.24,7.36h-4.33l13.34-29.46h4.17l13.38,29.46h-4.42l-3.24-7.36ZM140.51,206.49l-6.35-14.43-6.35,14.43h12.71Z"/><path d="M171.69,187.76h4.21v29.46h-4.21v-29.46Z"/><path d="M222.1,217.22l-6.35-9.05c-.59.04-1.22.08-1.85.08h-7.28v8.96h-4.21v-29.46h11.49c7.66,0,12.29,3.87,12.29,10.27,0,4.55-2.36,7.83-6.48,9.3l6.99,9.89h-4.59ZM221.98,198.03c0-4.21-2.82-6.61-8.21-6.61h-7.15v13.26h7.15c5.39,0,8.21-2.44,8.21-6.65Z"/><path d="M234.76,114.04v3.14h-77.42v-2.48l50.12-50.78c14.72-14.89,17.7-23.49,17.7-33.25,0-16.21-11.25-26.63-32.26-26.63-15.88,0-27.29,4.63-35.73,14.06l-2.32-2.32c8.6-9.59,21.17-14.89,38.05-14.89,21.83,0,35.57,11.25,35.57,29.61,0,10.92-3.64,20.35-18.69,35.57l-47.31,47.97h72.29Z"/><path d="M133.94,6.18h-1.5v5.04h-2.58v-4.97h-14.75v-3.14h14.75V.17h2.58v2.94h1.54c3.37,0,5.59,2.03,5.59,5.72,0,1.34-.33,2.65-1.01,3.53l-2.39-.95c.49-.65.82-1.5.82-2.42,0-1.86-1.05-2.81-3.04-2.81Z"/><path d="M139.37,21.39v3.14h-24.26v-3.14h24.26Z"/><path d="M123.77,36.1c5.17,0,8.83,3.83,8.83,9.03s-3.66,8.99-8.83,8.99-8.86-3.79-8.86-8.99,3.69-9.03,8.86-9.03ZM123.77,50.95c3.7,0,6.08-2.49,6.08-5.82s-2.39-5.85-6.08-5.85-6.12,2.52-6.12,5.85,2.42,5.82,6.12,5.82Z"/><path d="M123.77,64.06c5.17,0,8.83,3.83,8.83,9.03s-3.66,8.99-8.83,8.99-8.86-3.79-8.86-8.99,3.69-9.03,8.86-9.03ZM123.77,78.91c3.7,0,6.08-2.49,6.08-5.82s-2.39-5.85-6.08-5.85-6.12,2.52-6.12,5.85,2.42,5.82,6.12,5.82Z"/><path d="M132.6,102.94h-3.04c.03-.26.03-.49.03-.72,0-3.37-2.06-5.46-5.85-5.46h-8.63v-3.14h17.33v3.01h-2.91c2.03,1.11,3.07,3.27,3.07,6.31Z"/></svg>