<?xml version="1.0" encoding="UTF-8"?><svg id="_レイヤー_1" xmlns="http://www.w3.org/2000/svg" viewBox="0 0 349.67 217.39"><path d="M50.43,191.25v10.27h14.77v3.62h-14.77v11.91h-4.21v-29.46h20.79v3.66h-16.58Z"/><path d="M90.36,204.34v-16.75h4.21v16.58c0,6.52,2.99,9.47,8.29,9.47s8.33-2.95,8.33-9.47v-16.58h4.08v16.75c0,8.54-4.67,13.05-12.46,13.05s-12.46-4.5-12.46-13.05Z"/><path d="M146.87,191.25h-10.1v-3.66h24.37v3.66h-10.1v25.8h-4.17v-25.8Z"/><path d="M182.6,204.34v-16.75h4.21v16.58c0,6.52,2.99,9.47,8.29,9.47s8.33-2.95,8.33-9.47v-16.58h4.08v16.75c0,8.54-4.67,13.05-12.46,13.05s-12.46-4.5-12.46-13.05Z"/><path d="M253.5,217.05l-6.35-9.05c-.59.04-1.22.08-1.85.08h-7.28v8.96h-4.21v-29.46h11.49c7.66,0,12.29,3.87,12.29,10.27,0,4.55-2.36,7.83-6.48,9.3l6.99,9.89h-4.59ZM253.37,197.86c0-4.21-2.82-6.61-8.21-6.61h-7.15v13.26h7.15c5.39,0,8.21-2.44,8.21-6.65Z"/><path d="M303.45,213.39v3.66h-21.38v-29.46h20.79v3.66h-16.58v9.05h14.77v3.58h-14.77v9.51h17.17Z"/><path d="M231.42,85.26c0,19.19-13.4,32.26-38.21,32.26-17.37,0-32.75-6.78-39.7-16.38l2.15-2.15c6.45,8.6,20.51,15.38,37.55,15.38,22.99,0,34.9-11.41,34.9-29.11s-11.75-29.11-37.05-29.11h-5.96v-2.48L222.65,4.37h-65.51V1.22h69.97v2.48l-37.55,49.3h1.32c27.29,0,40.53,13.07,40.53,32.26Z"/><path d="M134.07,6.02h-1.5v5.04h-2.58v-4.97h-14.75v-3.14h14.75V0h2.58v2.94h1.54c3.37,0,5.59,2.03,5.59,5.72,0,1.34-.33,2.65-1.01,3.53l-2.39-.95c.49-.65.82-1.5.82-2.42,0-1.86-1.05-2.81-3.04-2.81Z"/><path d="M139.5,21.22v3.14h-24.26v-3.14h24.26Z"/><path d="M123.9,35.94c5.17,0,8.83,3.83,8.83,9.03s-3.66,8.99-8.83,8.99-8.86-3.79-8.86-8.99,3.7-9.03,8.86-9.03ZM123.9,50.78c3.69,0,6.08-2.49,6.08-5.82s-2.39-5.85-6.08-5.85-6.12,2.52-6.12,5.85,2.42,5.82,6.12,5.82Z"/><path d="M123.9,63.9c5.17,0,8.83,3.83,8.83,9.03s-3.66,8.99-8.83,8.99-8.86-3.79-8.86-8.99,3.7-9.03,8.86-9.03ZM123.9,78.74c3.69,0,6.08-2.49,6.08-5.82s-2.39-5.85-6.08-5.85-6.12,2.52-6.12,5.85,2.42,5.82,6.12,5.82Z"/><path d="M132.73,102.78h-3.04c.03-.26.03-.49.03-.72,0-3.37-2.06-5.46-5.85-5.46h-8.63v-3.14h17.33v3.01h-2.91c2.03,1.11,3.07,3.27,3.07,6.31Z"/></svg>