<?xml version="1.0" encoding="UTF-8"?><svg id="_レイヤー_1" xmlns="http://www.w3.org/2000/svg" viewBox="0 0 349.67 217.39"><path d="M19.7,217.05l-6.35-9.05c-.59.04-1.22.08-1.85.08h-7.28v8.96H0v-29.46h11.49c7.66,0,12.29,3.87,12.29,10.27,0,4.55-2.36,7.83-6.48,9.3l6.99,9.89h-4.59ZM19.57,197.86c0-4.21-2.82-6.61-8.21-6.61h-7.15v13.26h7.15c5.39,0,8.21-2.44,8.21-6.65Z"/><path d="M67.03,209.68h-15.66l-3.24,7.36h-4.33l13.34-29.46h4.17l13.38,29.46h-4.42l-3.24-7.36ZM65.56,206.32l-6.35-14.43-6.35,14.43h12.71Z"/><path d="M96.74,187.59h12.42c9.47,0,15.91,5.98,15.91,14.73s-6.44,14.73-15.91,14.73h-12.42v-29.46ZM108.9,213.39c7.28,0,11.95-4.46,11.95-11.07s-4.67-11.07-11.95-11.07h-7.95v22.14h7.95Z"/><path d="M149.17,187.59h4.21v29.46h-4.21v-29.46Z"/><path d="M198.65,209.68h-15.66l-3.24,7.36h-4.33l13.34-29.46h4.17l13.38,29.46h-4.42l-3.24-7.36ZM197.18,206.32l-6.35-14.43-6.35,14.43h12.71Z"/><path d="M253.69,187.59v29.46h-3.45l-17.68-21.97v21.97h-4.21v-29.46h3.45l17.67,21.97v-21.97h4.21Z"/><path d="M277.8,202.32c0-8.71,6.65-15.07,15.61-15.07,4.54,0,8.5,1.56,11.19,4.59l-2.74,2.65c-2.27-2.4-5.05-3.49-8.29-3.49-6.65,0-11.57,4.8-11.57,11.32s4.92,11.32,11.57,11.32c3.24,0,6.02-1.14,8.29-3.54l2.74,2.65c-2.69,3.03-6.65,4.63-11.24,4.63-8.92,0-15.57-6.35-15.57-15.07Z"/><path d="M349.67,213.39v3.66h-21.38v-29.46h20.79v3.66h-16.58v9.05h14.77v3.58h-14.77v9.51h17.17Z"/><path d="M184.93,1.22v115.79h-3.14V4.37h-29.78V1.22h32.92Z"/><path d="M134.07,6.02h-1.5v5.04h-2.58v-4.97h-14.75v-3.14h14.75V0h2.58v2.94h1.54c3.37,0,5.59,2.03,5.59,5.72,0,1.34-.33,2.65-1.01,3.53l-2.39-.95c.49-.65.82-1.5.82-2.42,0-1.86-1.05-2.81-3.04-2.81Z"/><path d="M139.5,21.22v3.14h-24.26v-3.14h24.26Z"/><path d="M123.9,35.94c5.17,0,8.83,3.83,8.83,9.03s-3.66,8.99-8.83,8.99-8.86-3.79-8.86-8.99,3.69-9.03,8.86-9.03ZM123.9,50.78c3.7,0,6.08-2.49,6.08-5.82s-2.39-5.85-6.08-5.85-6.12,2.52-6.12,5.85,2.42,5.82,6.12,5.82Z"/><path d="M123.9,63.9c5.17,0,8.83,3.83,8.83,9.03s-3.66,8.99-8.83,8.99-8.86-3.79-8.86-8.99,3.69-9.03,8.86-9.03ZM123.9,78.74c3.7,0,6.08-2.49,6.08-5.82s-2.39-5.85-6.08-5.85-6.12,2.52-6.12,5.85,2.42,5.82,6.12,5.82Z"/><path d="M132.73,102.78h-3.04c.03-.26.03-.49.03-.72,0-3.37-2.06-5.46-5.85-5.46h-8.63v-3.14h17.33v3.01h-2.91c2.03,1.11,3.07,3.27,3.07,6.31Z"/></svg>