<svg width="1793" height="90" viewBox="0 0 1793 90" fill="none" xmlns="http://www.w3.org/2000/svg">
<rect width="1793" height="90" fill="url(#paint0_linear_81_1354)"/>
<path d="M810.16 37.3291C810.88 37.4091 811.693 37.4691 812.6 37.5091C813.52 37.5491 814.493 37.5691 815.52 37.5691C816.16 37.5691 816.813 37.5558 817.48 37.5291C818.147 37.5025 818.787 37.4691 819.4 37.4291C820.027 37.3891 820.587 37.3425 821.08 37.2891V39.3691C820.627 39.4091 820.087 39.4491 819.46 39.4891C818.833 39.5291 818.173 39.5625 817.48 39.5891C816.8 39.6025 816.147 39.6091 815.52 39.6091C814.507 39.6091 813.56 39.5891 812.68 39.5491C811.8 39.5091 810.96 39.4558 810.16 39.3891V37.3291ZM811.34 45.5691C811.22 45.9425 811.127 46.3091 811.06 46.6691C810.993 47.0158 810.96 47.3691 810.96 47.7291C810.96 48.4358 811.32 49.0158 812.04 49.4691C812.76 49.9091 813.893 50.1291 815.44 50.1291C816.347 50.1291 817.22 50.1025 818.06 50.0491C818.913 49.9825 819.707 49.8891 820.44 49.7691C821.173 49.6491 821.807 49.5091 822.34 49.3491L822.36 51.5491C821.84 51.6691 821.227 51.7825 820.52 51.8891C819.813 52.0091 819.033 52.0958 818.18 52.1491C817.34 52.2158 816.447 52.2491 815.5 52.2491C814.06 52.2491 812.847 52.0891 811.86 51.7691C810.887 51.4625 810.147 51.0091 809.64 50.4091C809.133 49.8091 808.88 49.0691 808.88 48.1891C808.88 47.6425 808.92 47.1358 809 46.6691C809.093 46.1891 809.187 45.7558 809.28 45.3691L811.34 45.5691ZM821.62 35.1691C821.793 35.3958 821.98 35.6758 822.18 36.0091C822.38 36.3425 822.573 36.6758 822.76 37.0091C822.947 37.3425 823.107 37.6425 823.24 37.9091L821.92 38.4891C821.72 38.0758 821.473 37.6025 821.18 37.0691C820.887 36.5358 820.6 36.0825 820.32 35.7091L821.62 35.1691ZM823.9 34.3291C824.073 34.5691 824.267 34.8558 824.48 35.1891C824.693 35.5225 824.893 35.8558 825.08 36.1891C825.28 36.5225 825.44 36.8091 825.56 37.0491L824.26 37.6291C824.047 37.1891 823.787 36.7158 823.48 36.2091C823.187 35.6891 822.9 35.2425 822.62 34.8691L823.9 34.3291ZM835.14 43.4291H837.12V50.8491C837.12 51.3825 837.04 51.7891 836.88 52.0691C836.733 52.3625 836.453 52.5758 836.04 52.7091C835.627 52.8425 835.107 52.9225 834.48 52.9491C833.867 52.9891 833.127 53.0091 832.26 53.0091C832.207 52.7291 832.107 52.4158 831.96 52.0691C831.827 51.7225 831.687 51.4225 831.54 51.1691C831.98 51.1825 832.413 51.1958 832.84 51.2091C833.267 51.2091 833.64 51.2091 833.96 51.2091C834.293 51.2091 834.527 51.2091 834.66 51.2091C834.847 51.1958 834.973 51.1625 835.04 51.1091C835.107 51.0558 835.14 50.9558 835.14 50.8091V43.4291ZM828.92 35.5891H841.4V37.3291H828.92V35.5891ZM840.68 35.5891H841.18L841.62 35.4691L842.98 36.5491C842.42 37.1091 841.793 37.6758 841.1 38.2491C840.407 38.8225 839.687 39.3691 838.94 39.8891C838.193 40.3958 837.473 40.8425 836.78 41.2291C836.687 41.0958 836.567 40.9558 836.42 40.8091C836.287 40.6491 836.147 40.4891 836 40.3291C835.853 40.1691 835.727 40.0425 835.62 39.9491C836.22 39.6291 836.847 39.2425 837.5 38.7891C838.153 38.3225 838.76 37.8425 839.32 37.3491C839.893 36.8558 840.347 36.4025 840.68 35.9891V35.5891ZM827 42.0291H843.58V43.8291H827V42.0291ZM831.68 39.7491L832.66 38.3491C833.22 38.5625 833.833 38.8025 834.5 39.0691C835.167 39.3225 835.833 39.5891 836.5 39.8691C837.18 40.1491 837.82 40.4225 838.42 40.6891C839.033 40.9425 839.553 41.1758 839.98 41.3891L838.96 43.0091C838.547 42.7958 838.047 42.5558 837.46 42.2891C836.887 42.0091 836.26 41.7225 835.58 41.4291C834.913 41.1225 834.24 40.8291 833.56 40.5491C832.893 40.2558 832.267 39.9891 831.68 39.7491ZM842.94 42.0291H843.3L843.64 41.8891L845.18 42.5691C844.687 43.4758 844.14 44.3891 843.54 45.3091C842.94 46.2158 842.347 46.9891 841.76 47.6291L840.16 46.6891C840.467 46.3158 840.787 45.8891 841.12 45.4091C841.467 44.9291 841.793 44.4291 842.1 43.9091C842.42 43.3758 842.7 42.8625 842.94 42.3691V42.0291ZM856.08 43.2691L857.6 42.5091C857.973 42.9758 858.34 43.4825 858.7 44.0291C859.06 44.5625 859.38 45.0958 859.66 45.6291C859.953 46.1625 860.18 46.6425 860.34 47.0691L858.68 47.9491C858.547 47.5225 858.34 47.0425 858.06 46.5091C857.78 45.9625 857.467 45.4091 857.12 44.8491C856.787 44.2758 856.44 43.7491 856.08 43.2691ZM856.42 38.0091H863.86V39.7891H856.42V38.0091ZM863.06 38.0091H864.88C864.88 38.0091 864.88 38.0691 864.88 38.1891C864.88 38.3091 864.88 38.4425 864.88 38.5891C864.88 38.7358 864.88 38.8491 864.88 38.9291C864.8 41.1558 864.713 43.0491 864.62 44.6091C864.54 46.1558 864.447 47.4358 864.34 48.4491C864.233 49.4491 864.107 50.2358 863.96 50.8091C863.813 51.3691 863.64 51.7758 863.44 52.0291C863.187 52.3625 862.92 52.5891 862.64 52.7091C862.373 52.8291 862.04 52.9158 861.64 52.9691C861.307 53.0091 860.853 53.0291 860.28 53.0291C859.707 53.0291 859.12 53.0158 858.52 52.9891C858.507 52.7091 858.44 52.3891 858.32 52.0291C858.213 51.6691 858.073 51.3558 857.9 51.0891C858.553 51.1425 859.153 51.1758 859.7 51.1891C860.26 51.2025 860.667 51.2091 860.92 51.2091C861.12 51.2091 861.287 51.1891 861.42 51.1491C861.553 51.0958 861.673 51.0025 861.78 50.8691C861.953 50.6958 862.1 50.3425 862.22 49.8091C862.353 49.2758 862.467 48.5225 862.56 47.5491C862.667 46.5625 862.76 45.3225 862.84 43.8291C862.92 42.3225 862.993 40.5158 863.06 38.4091V38.0091ZM856.9 34.4691L858.84 34.9091C858.573 35.8691 858.24 36.8225 857.84 37.7691C857.44 38.7025 857.007 39.5758 856.54 40.3891C856.073 41.2025 855.587 41.9158 855.08 42.5291C854.96 42.4225 854.793 42.2958 854.58 42.1491C854.38 42.0025 854.167 41.8625 853.94 41.7291C853.727 41.5825 853.547 41.4691 853.4 41.3891C853.92 40.8291 854.4 40.1825 854.84 39.4491C855.28 38.7158 855.673 37.9225 856.02 37.0691C856.367 36.2158 856.66 35.3491 856.9 34.4691ZM849.78 34.4891L851.46 35.1091C851.193 35.6025 850.913 36.1225 850.62 36.6691C850.34 37.2025 850.053 37.7158 849.76 38.2091C849.48 38.7025 849.207 39.1291 848.94 39.4891L847.66 38.9491C847.913 38.5491 848.167 38.0891 848.42 37.5691C848.687 37.0491 848.94 36.5225 849.18 35.9891C849.42 35.4425 849.62 34.9425 849.78 34.4891ZM852.18 36.8091L853.82 37.4891C853.34 38.2491 852.813 39.0491 852.24 39.8891C851.68 40.7158 851.107 41.5225 850.52 42.3091C849.947 43.0825 849.4 43.7491 848.88 44.3091L847.7 43.7091C848.087 43.2558 848.487 42.7491 848.9 42.1891C849.313 41.6158 849.72 41.0158 850.12 40.3891C850.52 39.7625 850.893 39.1425 851.24 38.5291C851.6 37.9158 851.913 37.3425 852.18 36.8091ZM846.66 38.9291L847.58 37.6491C847.94 37.9558 848.307 38.2958 848.68 38.6691C849.067 39.0425 849.413 39.4091 849.72 39.7691C850.04 40.1291 850.287 40.4625 850.46 40.7691L849.48 42.2291C849.307 41.9091 849.067 41.5558 848.76 41.1691C848.453 40.7825 848.113 40.3958 847.74 40.0091C847.38 39.6091 847.02 39.2491 846.66 38.9291ZM851.62 41.5291L852.98 40.9491C853.26 41.3758 853.527 41.8425 853.78 42.3491C854.047 42.8425 854.28 43.3291 854.48 43.8091C854.68 44.2891 854.827 44.7158 854.92 45.0891L853.46 45.7691C853.367 45.3958 853.22 44.9691 853.02 44.4891C852.833 43.9958 852.613 43.4891 852.36 42.9691C852.12 42.4491 851.873 41.9691 851.62 41.5291ZM846.62 43.3691C847.54 43.3425 848.633 43.3025 849.9 43.2491C851.18 43.1958 852.487 43.1425 853.82 43.0891L853.8 44.6091C852.547 44.6891 851.307 44.7691 850.08 44.8491C848.853 44.9291 847.753 44.9958 846.78 45.0491L846.62 43.3691ZM852.04 46.4091L853.46 45.9491C853.74 46.5625 854.007 47.2291 854.26 47.9491C854.513 48.6558 854.693 49.2691 854.8 49.7891L853.28 50.3091C853.187 49.7891 853.02 49.1625 852.78 48.4291C852.553 47.6958 852.307 47.0225 852.04 46.4091ZM847.62 46.0691L849.22 46.3491C849.1 47.2958 848.92 48.2291 848.68 49.1491C848.453 50.0691 848.187 50.8491 847.88 51.4891C847.773 51.4225 847.633 51.3425 847.46 51.2491C847.287 51.1558 847.1 51.0691 846.9 50.9891C846.713 50.8958 846.553 50.8291 846.42 50.7891C846.74 50.1758 846.993 49.4491 847.18 48.6091C847.38 47.7691 847.527 46.9225 847.62 46.0691ZM849.94 44.1691H851.62V53.0891H849.94V44.1691ZM873.9 39.3491C874.473 39.4025 875.04 39.4491 875.6 39.4891C876.173 39.5158 876.76 39.5291 877.36 39.5291C878.56 39.5291 879.76 39.4758 880.96 39.3691C882.16 39.2625 883.273 39.1091 884.3 38.9091V40.8491C883.233 41.0225 882.1 41.1491 880.9 41.2291C879.713 41.3091 878.527 41.3558 877.34 41.3691C876.753 41.3691 876.18 41.3558 875.62 41.3291C875.073 41.3025 874.507 41.2691 873.92 41.2291L873.9 39.3491ZM881.16 35.8491C881.133 36.0491 881.107 36.2558 881.08 36.4691C881.067 36.6825 881.053 36.8891 881.04 37.0891C881.027 37.3158 881.013 37.6158 881 37.9891C881 38.3625 880.993 38.7691 880.98 39.2091C880.98 39.6358 880.98 40.0625 880.98 40.4891C880.98 41.3291 880.993 42.1358 881.02 42.9091C881.06 43.6825 881.1 44.4158 881.14 45.1091C881.18 45.8025 881.213 46.4558 881.24 47.0691C881.267 47.6691 881.28 48.2158 881.28 48.7091C881.28 49.1625 881.22 49.5958 881.1 50.0091C880.98 50.4225 880.78 50.7891 880.5 51.1091C880.22 51.4291 879.84 51.6758 879.36 51.8491C878.893 52.0358 878.313 52.1291 877.62 52.1291C876.26 52.1291 875.207 51.8625 874.46 51.3291C873.713 50.7958 873.34 50.0491 873.34 49.0891C873.34 48.4758 873.507 47.9291 873.84 47.4491C874.187 46.9691 874.673 46.5891 875.3 46.3091C875.94 46.0291 876.707 45.8891 877.6 45.8891C878.493 45.8891 879.307 45.9891 880.04 46.1891C880.773 46.3758 881.453 46.6358 882.08 46.9691C882.707 47.2891 883.267 47.6425 883.76 48.0291C884.267 48.4158 884.727 48.7891 885.14 49.1491L884.06 50.8291C883.34 50.1358 882.62 49.5358 881.9 49.0291C881.193 48.5225 880.473 48.1291 879.74 47.8491C879.007 47.5691 878.24 47.4291 877.44 47.4291C876.76 47.4291 876.207 47.5625 875.78 47.8291C875.367 48.0958 875.16 48.4425 875.16 48.8691C875.16 49.3358 875.367 49.6891 875.78 49.9291C876.193 50.1558 876.72 50.2691 877.36 50.2691C877.853 50.2691 878.24 50.1891 878.52 50.0291C878.8 49.8691 879 49.6358 879.12 49.3291C879.24 49.0225 879.3 48.6625 879.3 48.2491C879.3 47.9025 879.287 47.4358 879.26 46.8491C879.233 46.2491 879.2 45.5958 879.16 44.8891C879.12 44.1691 879.087 43.4358 879.06 42.6891C879.033 41.9291 879.02 41.2025 879.02 40.5091C879.02 39.7891 879.02 39.1291 879.02 38.5291C879.02 37.9158 879.02 37.4491 879.02 37.1291C879.02 36.9558 879.007 36.7491 878.98 36.5091C878.967 36.2558 878.94 36.0358 878.9 35.8491H881.16ZM871.34 36.0291C871.3 36.1358 871.253 36.2891 871.2 36.4891C871.147 36.6891 871.093 36.8891 871.04 37.0891C871 37.2891 870.967 37.4491 870.94 37.5691C870.873 37.8891 870.793 38.3025 870.7 38.8091C870.62 39.3025 870.533 39.8491 870.44 40.4491C870.36 41.0358 870.28 41.6358 870.2 42.2491C870.133 42.8625 870.073 43.4491 870.02 44.0091C869.98 44.5691 869.96 45.0625 869.96 45.4891C869.96 45.8358 869.973 46.1891 870 46.5491C870.027 46.8958 870.067 47.2558 870.12 47.6291C870.213 47.3491 870.32 47.0625 870.44 46.7691C870.56 46.4625 870.68 46.1625 870.8 45.8691C870.933 45.5758 871.053 45.3091 871.16 45.0691L872.16 45.8491C871.987 46.3558 871.8 46.9025 871.6 47.4891C871.4 48.0625 871.22 48.6091 871.06 49.1291C870.913 49.6491 870.8 50.0825 870.72 50.4291C870.693 50.5625 870.667 50.7225 870.64 50.9091C870.627 51.0825 870.62 51.2291 870.62 51.3491C870.633 51.4425 870.64 51.5558 870.64 51.6891C870.653 51.8358 870.667 51.9691 870.68 52.0891L868.9 52.2291C868.687 51.5225 868.5 50.6291 868.34 49.5491C868.193 48.4558 868.12 47.2291 868.12 45.8691C868.12 45.1225 868.153 44.3491 868.22 43.5491C868.287 42.7358 868.367 41.9425 868.46 41.1691C868.567 40.3958 868.667 39.6891 868.76 39.0491C868.853 38.4091 868.933 37.8891 869 37.4891C869.027 37.2358 869.053 36.9625 869.08 36.6691C869.12 36.3758 869.147 36.0958 869.16 35.8291L871.34 36.0291ZM890.54 37.1091C891.273 37.2025 892.093 37.2691 893 37.3091C893.92 37.3491 894.887 37.3691 895.9 37.3691C896.553 37.3691 897.213 37.3558 897.88 37.3291C898.547 37.3025 899.187 37.2691 899.8 37.2291C900.427 37.1758 900.987 37.1291 901.48 37.0891V39.1691C901.027 39.2091 900.48 39.2491 899.84 39.2891C899.213 39.3291 898.56 39.3625 897.88 39.3891C897.2 39.4025 896.547 39.4091 895.92 39.4091C894.893 39.4091 893.94 39.3891 893.06 39.3491C892.18 39.2958 891.34 39.2425 890.54 39.1891V37.1091ZM891.74 45.3491C891.62 45.7225 891.527 46.0891 891.46 46.4491C891.393 46.8091 891.36 47.1625 891.36 47.5091C891.36 48.2158 891.72 48.7958 892.44 49.2491C893.173 49.7025 894.3 49.9291 895.82 49.9291C896.74 49.9291 897.62 49.8958 898.46 49.8291C899.313 49.7625 900.107 49.6691 900.84 49.5491C901.573 49.4291 902.207 49.2891 902.74 49.1291L902.76 51.3291C902.24 51.4625 901.62 51.5825 900.9 51.6891C900.193 51.7958 899.413 51.8758 898.56 51.9291C897.72 51.9958 896.833 52.0291 895.9 52.0291C894.473 52.0291 893.267 51.8691 892.28 51.5491C891.293 51.2425 890.547 50.7891 890.04 50.1891C889.533 49.5891 889.28 48.8558 889.28 47.9891C889.28 47.4425 889.327 46.9358 889.42 46.4691C889.513 45.9891 889.6 45.5558 889.68 45.1691L891.74 45.3491ZM914.72 35.5891C914.627 35.8825 914.547 36.1891 914.48 36.5091C914.427 36.8291 914.367 37.1358 914.3 37.4291C914.247 37.7491 914.173 38.1358 914.08 38.5891C913.987 39.0291 913.88 39.5091 913.76 40.0291C913.653 40.5358 913.54 41.0491 913.42 41.5691C913.3 42.0891 913.173 42.5891 913.04 43.0691C912.907 43.5358 912.773 43.9558 912.64 44.3291C913.493 43.7958 914.353 43.4158 915.22 43.1891C916.087 42.9491 917.007 42.8291 917.98 42.8291C919.06 42.8291 919.98 43.0025 920.74 43.3491C921.513 43.6825 922.113 44.1558 922.54 44.7691C922.967 45.3825 923.18 46.1025 923.18 46.9291C923.18 47.9958 922.92 48.9025 922.4 49.6491C921.893 50.3958 921.173 50.9758 920.24 51.3891C919.307 51.8158 918.193 52.0891 916.9 52.2091C915.62 52.3291 914.193 52.3091 912.62 52.1491L912.08 50.1291C913.213 50.2891 914.313 50.3625 915.38 50.3491C916.46 50.3358 917.427 50.2158 918.28 49.9891C919.133 49.7491 919.813 49.3825 920.32 48.8891C920.827 48.3958 921.08 47.7558 921.08 46.9691C921.08 46.2891 920.793 45.7158 920.22 45.2491C919.66 44.7691 918.84 44.5291 917.76 44.5291C916.587 44.5291 915.493 44.7291 914.48 45.1291C913.467 45.5291 912.64 46.1225 912 46.9091C911.893 47.0558 911.793 47.2025 911.7 47.3491C911.607 47.4825 911.513 47.6358 911.42 47.8091L909.54 47.1491C909.927 46.4025 910.28 45.5691 910.6 44.6491C910.92 43.7291 911.2 42.8025 911.44 41.8691C911.693 40.9225 911.9 40.0491 912.06 39.2491C912.22 38.4491 912.327 37.7958 912.38 37.2891C912.433 36.9291 912.467 36.6158 912.48 36.3491C912.507 36.0691 912.507 35.7825 912.48 35.4891L914.72 35.5891ZM908.18 38.0491C908.753 38.1425 909.4 38.2225 910.12 38.2891C910.84 38.3558 911.507 38.3891 912.12 38.3891C912.76 38.3891 913.467 38.3691 914.24 38.3291C915.027 38.2891 915.847 38.2291 916.7 38.1491C917.553 38.0691 918.407 37.9691 919.26 37.8491C920.127 37.7158 920.96 37.5625 921.76 37.3891L921.8 39.3091C921.12 39.4158 920.367 39.5225 919.54 39.6291C918.713 39.7358 917.867 39.8358 917 39.9291C916.133 40.0091 915.28 40.0758 914.44 40.1291C913.6 40.1691 912.833 40.1891 912.14 40.1891C911.42 40.1891 910.727 40.1758 910.06 40.1491C909.393 40.1091 908.767 40.0625 908.18 40.0091V38.0491ZM932.68 35.5091C933.133 35.6425 933.713 35.7891 934.42 35.9491C935.127 36.1091 935.867 36.2691 936.64 36.4291C937.413 36.5758 938.147 36.7091 938.84 36.8291C939.533 36.9358 940.1 37.0091 940.54 37.0491L940.08 38.9891C939.68 38.9358 939.207 38.8625 938.66 38.7691C938.113 38.6625 937.527 38.5491 936.9 38.4291C936.273 38.3091 935.653 38.1891 935.04 38.0691C934.44 37.9491 933.893 37.8291 933.4 37.7091C932.907 37.5891 932.5 37.4891 932.18 37.4091L932.68 35.5091ZM932.5 39.3091C932.433 39.6158 932.36 40.0025 932.28 40.4691C932.213 40.9358 932.14 41.4225 932.06 41.9291C931.993 42.4358 931.927 42.9225 931.86 43.3891C931.793 43.8425 931.74 44.2225 931.7 44.5291C932.633 43.7691 933.62 43.2091 934.66 42.8491C935.713 42.4891 936.807 42.3091 937.94 42.3091C939.033 42.3091 939.973 42.5091 940.76 42.9091C941.547 43.2958 942.153 43.8225 942.58 44.4891C943.02 45.1425 943.24 45.8691 943.24 46.6691C943.24 47.5625 943.04 48.3891 942.64 49.1491C942.24 49.8958 941.607 50.5291 940.74 51.0491C939.873 51.5558 938.747 51.9158 937.36 52.1291C935.987 52.3425 934.327 52.3691 932.38 52.2091L931.78 50.1491C933.833 50.4025 935.547 50.4091 936.92 50.1691C938.307 49.9291 939.347 49.5025 940.04 48.8891C940.733 48.2625 941.08 47.5091 941.08 46.6291C941.08 46.1358 940.933 45.7025 940.64 45.3291C940.36 44.9425 939.973 44.6425 939.48 44.4291C938.987 44.2025 938.42 44.0891 937.78 44.0891C936.553 44.0891 935.427 44.3158 934.4 44.7691C933.387 45.2091 932.547 45.8291 931.88 46.6291C931.707 46.8291 931.567 47.0158 931.46 47.1891C931.367 47.3491 931.28 47.5158 931.2 47.6891L929.36 47.2491C929.44 46.8758 929.52 46.4291 929.6 45.9091C929.693 45.3758 929.78 44.8091 929.86 44.2091C929.94 43.5958 930.013 42.9825 930.08 42.3691C930.147 41.7425 930.207 41.1425 930.26 40.5691C930.313 39.9825 930.353 39.4691 930.38 39.0291L932.5 39.3091ZM954.96 35.6891C954.92 35.8891 954.873 36.1158 954.82 36.3691C954.767 36.6225 954.72 36.8558 954.68 37.0691C954.627 37.3358 954.56 37.6691 954.48 38.0691C954.413 38.4558 954.34 38.8625 954.26 39.2891C954.18 39.7025 954.093 40.1025 954 40.4891C953.867 41.0491 953.7 41.6958 953.5 42.4291C953.3 43.1625 953.067 43.9491 952.8 44.7891C952.547 45.6158 952.253 46.4625 951.92 47.3291C951.6 48.1825 951.247 49.0225 950.86 49.8491C950.487 50.6625 950.08 51.4225 949.64 52.1291L947.58 51.3091C948.047 50.6825 948.48 49.9891 948.88 49.2291C949.28 48.4558 949.647 47.6625 949.98 46.8491C950.313 46.0225 950.613 45.2091 950.88 44.4091C951.147 43.6091 951.373 42.8691 951.56 42.1891C951.76 41.4958 951.913 40.9025 952.02 40.4091C952.207 39.5558 952.353 38.7025 952.46 37.8491C952.58 36.9958 952.633 36.1958 952.62 35.4491L954.96 35.6891ZM961.86 37.7091C962.167 38.1225 962.493 38.6425 962.84 39.2691C963.187 39.8958 963.527 40.5625 963.86 41.2691C964.207 41.9758 964.513 42.6558 964.78 43.3091C965.06 43.9625 965.28 44.5225 965.44 44.9891L963.46 45.9091C963.327 45.3758 963.133 44.7758 962.88 44.1091C962.64 43.4291 962.36 42.7425 962.04 42.0491C961.733 41.3558 961.4 40.7025 961.04 40.0891C960.693 39.4625 960.347 38.9358 960 38.5091L961.86 37.7091ZM947.36 39.9491C947.693 39.9625 948.013 39.9691 948.32 39.9691C948.64 39.9691 948.967 39.9625 949.3 39.9491C949.62 39.9358 950.013 39.9158 950.48 39.8891C950.947 39.8491 951.447 39.8091 951.98 39.7691C952.527 39.7158 953.067 39.6691 953.6 39.6291C954.147 39.5758 954.647 39.5358 955.1 39.5091C955.553 39.4825 955.92 39.4691 956.2 39.4691C956.853 39.4691 957.433 39.5758 957.94 39.7891C958.447 39.9891 958.847 40.3491 959.14 40.8691C959.447 41.3891 959.6 42.1158 959.6 43.0491C959.6 43.8358 959.567 44.6891 959.5 45.6091C959.433 46.5158 959.313 47.3891 959.14 48.2291C958.98 49.0558 958.753 49.7491 958.46 50.3091C958.14 51.0025 957.72 51.4625 957.2 51.6891C956.693 51.9291 956.087 52.0491 955.38 52.0491C955.007 52.0491 954.6 52.0225 954.16 51.9691C953.72 51.9158 953.333 51.8491 953 51.7691L952.68 49.6891C952.947 49.7558 953.233 49.8225 953.54 49.8891C953.86 49.9558 954.16 50.0091 954.44 50.0491C954.72 50.0758 954.947 50.0891 955.12 50.0891C955.48 50.0891 955.793 50.0291 956.06 49.9091C956.34 49.7758 956.573 49.5158 956.76 49.1291C956.96 48.7158 957.127 48.1825 957.26 47.5291C957.393 46.8758 957.493 46.1758 957.56 45.4291C957.627 44.6825 957.66 43.9625 957.66 43.2691C957.66 42.6825 957.573 42.2491 957.4 41.9691C957.24 41.6891 957.007 41.5025 956.7 41.4091C956.393 41.3025 956.033 41.2491 955.62 41.2491C955.3 41.2491 954.86 41.2758 954.3 41.3291C953.753 41.3691 953.167 41.4225 952.54 41.4891C951.913 41.5558 951.333 41.6225 950.8 41.6891C950.267 41.7425 949.847 41.7891 949.54 41.8291C949.287 41.8558 948.96 41.8958 948.56 41.9491C948.173 42.0025 947.84 42.0558 947.56 42.1091L947.36 39.9491ZM972.68 35.5091C973.133 35.6425 973.713 35.7891 974.42 35.9491C975.127 36.1091 975.867 36.2691 976.64 36.4291C977.413 36.5758 978.147 36.7091 978.84 36.8291C979.533 36.9358 980.1 37.0091 980.54 37.0491L980.08 38.9891C979.68 38.9358 979.207 38.8625 978.66 38.7691C978.113 38.6625 977.527 38.5491 976.9 38.4291C976.273 38.3091 975.653 38.1891 975.04 38.0691C974.44 37.9491 973.893 37.8291 973.4 37.7091C972.907 37.5891 972.5 37.4891 972.18 37.4091L972.68 35.5091ZM972.5 39.3091C972.433 39.6158 972.36 40.0025 972.28 40.4691C972.213 40.9358 972.14 41.4225 972.06 41.9291C971.993 42.4358 971.927 42.9225 971.86 43.3891C971.793 43.8425 971.74 44.2225 971.7 44.5291C972.633 43.7691 973.62 43.2091 974.66 42.8491C975.713 42.4891 976.807 42.3091 977.94 42.3091C979.033 42.3091 979.973 42.5091 980.76 42.9091C981.547 43.2958 982.153 43.8225 982.58 44.4891C983.02 45.1425 983.24 45.8691 983.24 46.6691C983.24 47.5625 983.04 48.3891 982.64 49.1491C982.24 49.8958 981.607 50.5291 980.74 51.0491C979.873 51.5558 978.747 51.9158 977.36 52.1291C975.987 52.3425 974.327 52.3691 972.38 52.2091L971.78 50.1491C973.833 50.4025 975.547 50.4091 976.92 50.1691C978.307 49.9291 979.347 49.5025 980.04 48.8891C980.733 48.2625 981.08 47.5091 981.08 46.6291C981.08 46.1358 980.933 45.7025 980.64 45.3291C980.36 44.9425 979.973 44.6425 979.48 44.4291C978.987 44.2025 978.42 44.0891 977.78 44.0891C976.553 44.0891 975.427 44.3158 974.4 44.7691C973.387 45.2091 972.547 45.8291 971.88 46.6291C971.707 46.8291 971.567 47.0158 971.46 47.1891C971.367 47.3491 971.28 47.5158 971.2 47.6891L969.36 47.2491C969.44 46.8758 969.52 46.4291 969.6 45.9091C969.693 45.3758 969.78 44.8091 969.86 44.2091C969.94 43.5958 970.013 42.9825 970.08 42.3691C970.147 41.7425 970.207 41.1425 970.26 40.5691C970.313 39.9825 970.353 39.4691 970.38 39.0291L972.5 39.3091Z" fill="white"/>
<defs>
<linearGradient id="paint0_linear_81_1354" x1="0" y1="45" x2="1793" y2="45" gradientUnits="userSpaceOnUse">
<stop stop-color="#A6BACC"/>
<stop offset="1" stop-color="#8CBCB7"/>
</linearGradient>
</defs>
</svg>
